<svg width="60" height="60" fill="none" xmlns="http://www.w3.org/2000/svg"><g clip-path="url(#clip0)" fill="#F7654A"><path d="M45 16c-1.745.015-3.46.452-5 1.275a16.843 16.843 0 0 0-6-2.793V11.83c0-1.706.398-3.389 1.165-4.913l2.73-5.47A1 1 0 0 0 37 0h-3.53A5.05 5.05 0 0 0 29 2.765L27.378 6.02A12.932 12.932 0 0 0 26 11.83v2.652a16.843 16.843 0 0 0-6 2.793A10.798 10.798 0 0 0 15 16C6.729 16 0 25.87 0 38s6.729 22 15 22a11.35 11.35 0 0 0 6.587-2.224 17.025 17.025 0 0 0 16.826 0A11.352 11.352 0 0 0 45 60c8.271 0 15-9.87 15-22s-6.729-22-15-22zm-17-4.17c0-1.707.399-3.39 1.166-4.915l1.617-3.255A3.034 3.034 0 0 1 33.47 2h1.913l-2.005 4.019A12.932 12.932 0 0 0 32 11.83v2.29a16.716 16.716 0 0 0-4 0v-2.29zM45 58a9.013 9.013 0 0 1-4.79-1.427 17.28 17.28 0 0 0 2.135-1.885 1 1 0 0 0-1.452-1.376 15 15 0 0 1-21.786 0 1 1 0 1 0-1.452 1.376 17.388 17.388 0 0 0 2.134 1.885A9.022 9.022 0 0 1 15 58C7.832 58 2 49.028 2 38s5.832-20 13-20a8.665 8.665 0 0 1 3.311.677 17.254 17.254 0 0 0-1.583 1.7 1 1 0 1 0 1.56 1.25 15.133 15.133 0 0 1 2.384-2.376l.028-.022a15.011 15.011 0 0 1 18.6 0l.03.022a15.12 15.12 0 0 1 2.384 2.38 1 1 0 1 0 1.562-1.25c-.49-.602-1.02-1.17-1.587-1.7A8.658 8.658 0 0 1 45 18c7.168 0 13 8.972 13 20s-5.832 20-13 20z"/><path d="M12.564 36.418a1 1 0 0 0 1.134.093l.935-.54-.152.566a1 1 0 0 0 .707 1.224 7 7 0 0 0 6.248-12.179 1 1 0 0 0-1.134-.093l-.935.54.152-.566a1 1 0 0 0-.707-1.224 7 7 0 0 0-8.573 4.949 7.014 7.014 0 0 0 2.325 7.23zm-.394-6.712a5.01 5.01 0 0 1 5.132-3.7l-.491 1.835a1 1 0 0 0 1.465 1.125l2.385-1.376a5 5 0 0 1-3.963 8.4l.491-1.835a1 1 0 0 0-1.465-1.125l-2.385 1.376a5.017 5.017 0 0 1-1.17-4.7zm27.33 7.355a6.96 6.96 0 0 0 5.311.7 1 1 0 0 0 .707-1.224l-.152-.566.935.54a1 1 0 0 0 1.134-.093 7 7 0 0 0-6.248-12.18 1 1 0 0 0-.707 1.225l.152.566-.935-.54a1 1 0 0 0-1.134.093 7 7 0 0 0 .937 11.48zm-.162-9.47l2.385 1.377a1 1 0 0 0 1.465-1.125l-.488-1.835a5 5 0 0 1 3.963 8.4l-2.385-1.376a1 1 0 0 0-1.465 1.125l.491 1.835a5 5 0 0 1-3.963-8.4h-.003zm15.205 12.281a.999.999 0 0 0-1.461-.43c-2.553 1.675-7.314 3.076-13.065 3.847a1 1 0 0 0-.833 1.249l.3 1.135-1.938.52-.462-1.731a1 1 0 0 0-1.045-.739c-4.036.317-8.089.36-12.13.129a.984.984 0 0 0-1.027.739l-.43 1.6-1.938-.521.24-.894a.999.999 0 0 0-.86-1.254 44.139 44.139 0 0 1-13.388-3.2 1 1 0 0 0-1.4.671c-.076.33-.111.668-.106 1.007 0 5.76 9.732 10.445 22.684 10.95A1 1 0 0 0 29 52v-2h2v2a1 1 0 0 0 1.316.95C45.268 52.444 55 47.76 55 42c0-.733-.156-1.46-.457-2.128zM33 50.916V49a1 1 0 0 0-1-1h-4a1 1 0 0 0-1 1v1.916c-10.486-.558-18.98-4.07-19.915-8.167a48.824 48.824 0 0 0 11.438 2.632l-.2.739a1 1 0 0 0 .706 1.226l3.87 1.04a1 1 0 0 0 1.226-.707l.479-1.786c3.587.173 7.18.135 10.763-.114l.506 1.9a1 1 0 0 0 1.226.708l3.87-1.04a1 1 0 0 0 .706-1.224l-.269-1.011a38.445 38.445 0 0 0 11.587-3.3c0 .064.006.128.006.193C53 46.41 44.12 50.325 33 50.915z"/></g><defs><clipPath id="clip0"><path fill="#fff" d="M0 0h60v60H0z"/></clipPath></defs></svg>